<svg width="20" height="20" viewBox="0 0 20 20" fill="none" xmlns="http://www.w3.org/2000/svg">
<path d="M10.0004 5.54467C8.83696 5.56583 7.72833 6.04468 6.91304 6.87819C6.09774 7.7117 5.64094 8.83323 5.64094 10.0015C5.64094 11.1697 6.09774 12.2912 6.91304 13.1247C7.72833 13.9582 8.83696 14.4371 10.0004 14.4583C11.1638 14.4371 12.2724 13.9582 13.0877 13.1247C13.903 12.2912 14.3598 11.1697 14.3598 10.0015C14.3598 8.83323 13.903 7.7117 13.0877 6.87819C12.2724 6.04468 11.1638 5.56583 10.0004 5.54467ZM10.0004 13.2768C9.13514 13.2768 8.30535 12.9317 7.69355 12.3175C7.08174 11.7032 6.73803 10.8701 6.73803 10.0015C6.73803 9.13279 7.08174 8.2997 7.69355 7.68545C8.30535 7.07121 9.13514 6.72613 10.0004 6.72613C10.8656 6.72613 11.6954 7.07121 12.3072 7.68545C12.919 8.2997 13.2627 9.13279 13.2627 10.0015C13.2627 10.8701 12.919 11.7032 12.3072 12.3175C11.6954 12.9317 10.8656 13.2768 10.0004 13.2768ZM16.2454 0H3.7546C3.26144 9.60002e-05 2.77313 0.0977125 2.31755 0.287276C1.86197 0.476839 1.44804 0.754637 1.09939 1.10481C0.750748 1.45498 0.474213 1.87067 0.285579 2.32814C0.0969442 2.78561 -9.55672e-05 3.2759 7.06231e-08 3.77102V16.2304C7.06231e-08 18.3141 1.68214 20 3.7546 20H16.2454C18.3208 20 20 18.3112 20 16.2312V3.77248C20 1.68884 18.32 0 16.2454 0ZM14.5414 2.2474C14.5414 1.80509 14.8982 1.44539 15.3403 1.44539H17.6851C18.1249 1.44539 18.4832 1.80363 18.4832 2.2474V4.60155C18.4832 5.04313 18.1263 5.40284 17.6836 5.40284H15.3388C14.8997 5.40284 14.5407 5.0446 14.5407 4.60082V2.24667L14.5414 2.2474ZM19.2019 16.2312C19.2019 17.8674 17.8766 19.1994 16.2454 19.1994H3.7546C2.97072 19.1987 2.21918 18.8857 1.66489 18.3292C1.11061 17.7727 0.798878 17.0182 0.798107 16.2312V6.25822H1.40033C1.4746 5.89267 1.79647 5.61632 2.18314 5.61632H4.68669C5.07264 5.61632 5.39596 5.89194 5.46878 6.25749H6.55962C7.46405 5.41892 8.6714 4.90569 10.0004 4.90569C11.3293 4.90569 12.5345 5.41746 13.4397 6.25603H19.2012V16.2304H19.2026L19.2019 16.2312Z" fill="#500E61"/>
</svg>
