<svg width="20" height="20" viewBox="0 0 20 20" fill="none" xmlns="http://www.w3.org/2000/svg">
<path d="M8.66389 15.6642C8.47056 15.9375 8.2875 16.0722 8.1125 16.0722C7.99584 16.0722 7.92945 16.0039 7.90834 15.8683C7.9 15.8403 7.9 15.7339 7.9 15.5294V11.985H7.02834V15.7917C7.02834 16.1319 7.05722 16.3614 7.10528 16.5072C7.19222 16.7511 7.38611 16.8653 7.66723 16.8653C7.98778 16.8653 8.31722 16.6717 8.66361 16.2739V16.7992H9.53667V11.9853H8.66389V15.6642V15.6642Z" fill="#F41817"/>
<path d="M3.86028 11.2478H4.88639V16.7992H5.85639V11.2478H6.90139V10.3383H3.86028V11.2478Z" fill="#F41817"/>
<path d="M9.80027 7.0389C10.0844 7.0389 10.2206 6.8139 10.2206 6.36362V4.31696C10.2206 3.86723 10.0844 3.64307 9.80027 3.64307C9.51583 3.64307 9.37944 3.86723 9.37944 4.31696V6.36362C9.37972 6.81362 9.51583 7.0389 9.80027 7.0389Z" fill="#F41817"/>
<path d="M12.065 11.9264C11.7445 11.9264 11.4456 12.1019 11.1642 12.4486V10.3383H10.2917V16.7992H11.1642V16.3319C11.4553 16.6928 11.755 16.8653 12.065 16.8653C12.4125 16.8653 12.6459 16.6825 12.7625 16.3244C12.8206 16.1203 12.8503 15.7997 12.8503 15.3544V13.4375C12.8503 12.9819 12.8206 12.6636 12.7625 12.47C12.6456 12.1092 12.4125 11.9264 12.065 11.9264ZM11.9781 15.4228C11.9781 15.8575 11.85 16.0719 11.5986 16.0719C11.4553 16.0719 11.3097 16.0036 11.1639 15.8578V12.9233C11.3097 12.7797 11.455 12.7114 11.5986 12.7114C11.8503 12.7114 11.9781 12.9342 11.9781 13.3683V15.4228Z" fill="#F41817"/>
<path d="M14.8431 11.9264C14.3981 11.9264 14.0503 12.0906 13.7986 12.4203C13.6131 12.6633 13.5289 13.0394 13.5289 13.5536V15.2403C13.5289 15.7514 13.6239 16.1317 13.8092 16.3719C14.0611 16.7006 14.4083 16.865 14.865 16.865C15.3206 16.865 15.6781 16.6925 15.9197 16.3436C16.0263 16.1869 16.0959 16.0081 16.1233 15.8206C16.1311 15.7331 16.142 15.5392 16.142 15.2586V15.1308H15.2517C15.2517 15.4808 15.2408 15.6744 15.2328 15.7219C15.1831 15.955 15.0575 16.0717 14.8431 16.0717C14.5436 16.0717 14.3981 15.8494 14.3981 15.4039V14.5506H16.1422V13.5533C16.1422 13.0389 16.0547 12.6631 15.8722 12.42C15.6281 12.0903 15.2808 11.9264 14.8431 11.9264V11.9264ZM15.27 13.8247H14.3981V13.3794C14.3981 12.9344 14.5436 12.7117 14.8353 12.7117C15.1239 12.7117 15.27 12.9344 15.27 13.3794V13.8247V13.8247Z" fill="#F41817"/>
<path d="M18.0556 0H1.94444C0.875 0 0 0.875 0 1.94444V18.0556C0 19.125 0.875 20 1.94444 20H18.0556C19.125 20 20 19.125 20 18.0556V1.94444C20 0.875 19.125 0 18.0556 0ZM11.8278 2.90833H12.7064V6.48944C12.7064 6.69667 12.7064 6.80417 12.7172 6.8325C12.7367 6.96917 12.8056 7.03889 12.9239 7.03889C13.1 7.03889 13.2853 6.90222 13.4806 6.62611V2.90833H14.3622V7.77222H13.4806V7.24167C13.1297 7.64417 12.795 7.83972 12.4736 7.83972C12.1897 7.83972 11.9939 7.72444 11.9058 7.47778C11.8572 7.33083 11.8278 7.09778 11.8278 6.75445V2.90833V2.90833ZM8.49806 4.49389C8.49806 3.97417 8.58667 3.59389 8.77417 3.34806C9.01806 3.01583 9.36139 2.84944 9.80028 2.84944C10.2419 2.84944 10.5847 3.01583 10.8289 3.34806C11.0133 3.59389 11.1025 3.97417 11.1025 4.49389V6.19806C11.1025 6.71472 11.0136 7.09806 10.8289 7.34222C10.5847 7.67361 10.2422 7.84 9.80028 7.84C9.36111 7.84 9.01778 7.67361 8.77417 7.34222C8.58667 7.09806 8.49806 6.71472 8.49806 6.19806V4.49389ZM6.14083 1.245L6.835 3.80806L7.50139 1.245H8.48972L7.31417 5.12889V7.77222H6.33639V5.12889C6.24806 4.66 6.0525 3.97389 5.73917 3.06361C5.53306 2.45806 5.31833 1.84972 5.1125 1.245H6.14083ZM16.9647 17.0883C16.7886 17.8558 16.1603 18.4219 15.4047 18.5061C13.6147 18.7061 11.8033 18.7072 10 18.7061C8.19639 18.7072 6.385 18.7061 4.59528 18.5061C3.83944 18.4217 3.21222 17.8556 3.03583 17.0883C2.78444 15.995 2.78444 14.8017 2.78444 13.6767C2.78444 12.5506 2.78722 11.3581 3.03889 10.2644C3.215 9.49722 3.8425 8.93139 4.59833 8.84694C6.38806 8.64639 8.19945 8.64583 10.0031 8.64639C11.8064 8.64583 13.6178 8.64639 15.4078 8.84694C16.1631 8.93139 16.7911 9.49722 16.9675 10.2644C17.2189 11.3583 17.2175 12.5506 17.2175 13.6767C17.2178 14.8017 17.2164 15.995 16.9647 17.0883V17.0883Z" fill="#F41817"/>
</svg>
